<svg width="16" height="16" viewBox="0 0 16 16" fill="none" xmlns="http://www.w3.org/2000/svg">
<path fill-rule="evenodd" clip-rule="evenodd" d="M14 4V12C14 13.1046 13.1046 14 12 14H4C2.89543 14 2 13.1046 2 12V4C2 2.89543 2.89504 2 3.99961 2H8H12.0004C13.105 2 14 2.89543 14 4ZM4.5 11.0438C4.5 11.3199 4.72386 11.5438 5 11.5438H5.26787C5.54402 11.5438 5.76788 11.3199 5.76788 11.0438V9.008C5.76788 8.54513 5.87521 8.18623 6.08988 7.93131C6.30454 7.66969 6.60642 7.53888 6.9955 7.53888C7.33763 7.53888 7.59925 7.63279 7.78038 7.82063C7.96821 8.00846 8.06213 8.29021 8.06213 8.66588V11.0438C8.06213 11.3199 8.28598 11.5438 8.56212 11.5438H8.83C9.10614 11.5438 9.33 11.3199 9.33 11.0438V8.56525C9.33 8.14933 9.2495 7.78708 9.0885 7.4785C8.9275 7.16321 8.69942 6.91835 8.40425 6.74394C8.11579 6.56281 7.77702 6.47225 7.38794 6.47225C7.09277 6.47225 6.84792 6.50915 6.65337 6.58294C6.46554 6.65002 6.3146 6.73723 6.20056 6.84456C6.08652 6.9519 6.00267 7.05923 5.949 7.16656H5.76788V5C5.76788 4.72386 5.54402 4.5 5.26788 4.5H5C4.72386 4.5 4.5 4.72386 4.5 5V11.0438Z" fill="#7886FF"/>
</svg>
