<svg width="16" height="16" viewBox="0 0 16 16" fill="none" xmlns="http://www.w3.org/2000/svg">
<path fill-rule="evenodd" clip-rule="evenodd" d="M14 4V12C14 13.1046 13.1046 14 12 14H4C2.89543 14 2 13.1046 2 12V4C2 2.89543 2.89504 2 3.99961 2H8H12.0004C13.105 2 14 2.89543 14 4ZM5.44275 11.1565C5.89313 11.3855 6.39313 11.5 6.94275 11.5C7.48473 11.5 7.95038 11.4046 8.33969 11.2137C8.72901 11.0229 9.04198 10.7634 9.27863 10.4351C9.4233 10.2362 9.54253 10.0252 9.63633 9.80219C9.74393 9.54636 9.57397 9.27215 9.30395 9.20797L8.91777 9.11617C8.63606 9.0492 8.36589 9.24191 8.23706 9.50124C8.16531 9.64568 8.07356 9.77376 7.96183 9.8855C7.74046 10.1069 7.41221 10.2176 6.9771 10.2176C6.68702 10.2176 6.42366 10.1565 6.18702 10.0344C5.95802 9.90458 5.77481 9.71756 5.6374 9.47328C5.50763 9.22137 5.44275 8.91603 5.44275 8.55725V8.44275C5.44275 8.08397 5.50763 7.78244 5.6374 7.53817C5.77481 7.28626 5.95802 7.09924 6.18702 6.9771C6.42366 6.84733 6.68702 6.78244 6.9771 6.78244C7.26718 6.78244 7.50763 6.83588 7.69847 6.94275C7.89695 7.04962 8.04962 7.19466 8.15649 7.37786C8.17591 7.41116 8.19407 7.4452 8.21097 7.48001C8.33824 7.74213 8.60603 7.9443 8.89102 7.88357L9.28504 7.7996C9.54938 7.74326 9.72623 7.4844 9.63287 7.23075C9.54627 6.99544 9.42818 6.77731 9.27863 6.57634C9.04198 6.24046 8.72901 5.9771 8.33969 5.78626C7.95038 5.59542 7.48473 5.5 6.94275 5.5C6.39313 5.5 5.89313 5.6145 5.44275 5.84351C5 6.07252 4.64885 6.40458 4.38931 6.83969C4.12977 7.27481 4 7.80153 4 8.41985V8.58015C4 9.19847 4.12977 9.72519 4.38931 10.1603C4.64885 10.5954 5 10.9275 5.44275 11.1565Z" fill="#7886FF"/>
</svg>
