<svg width="16" height="16" viewBox="0 0 16 16" fill="none" xmlns="http://www.w3.org/2000/svg">
<path fill-rule="evenodd" clip-rule="evenodd" d="M14 4V12C14 13.1046 13.1046 14 12 14H4C2.89543 14 2 13.1046 2 12V4C2 2.89543 2.89504 2 3.99961 2H8H12.0004C13.105 2 14 2.89543 14 4ZM7.00001 10.9833H7.26667L7.26667 6.36666H5.35001V6.66667C5.35001 6.85996 5.19331 7.01666 5.00001 7.01666C4.80671 7.01666 4.65001 6.85996 4.65001 6.66667L4.65001 5.81923C4.6391 5.77012 4.63334 5.71906 4.63334 5.66666C4.63334 5.61426 4.6391 5.56321 4.65001 5.51409V5.33333C4.65001 5.14003 4.80672 4.98333 5.00001 4.98333C5.03959 4.98333 5.07764 4.9899 5.11311 5.00201C5.18236 4.97908 5.2564 4.96666 5.33334 4.96666H10.6667C10.7436 4.96666 10.8177 4.97908 10.8869 5.00201C10.9224 4.9899 10.9604 4.98333 11 4.98333C11.1933 4.98333 11.35 5.14003 11.35 5.33333V5.51412C11.3609 5.56323 11.3667 5.61427 11.3667 5.66666C11.3667 5.71905 11.3609 5.7701 11.35 5.8192V6.66667C11.35 6.85996 11.1933 7.01666 11 7.01666C10.8067 7.01666 10.65 6.85996 10.65 6.66667V6.36666H8.66667L8.66667 10.9833H9.00001C9.19331 10.9833 9.35001 11.14 9.35001 11.3333C9.35001 11.5266 9.19331 11.6833 9.00001 11.6833H7.00001C6.80671 11.6833 6.65001 11.5266 6.65001 11.3333C6.65001 11.14 6.80671 10.9833 7.00001 10.9833Z" fill="#A883F3"/>
</svg>
