<svg width="16" height="16" viewBox="0 0 16 16" fill="none" xmlns="http://www.w3.org/2000/svg">
<path fill-rule="evenodd" clip-rule="evenodd" d="M14 12V4C14 2.89543 13.105 2 12.0004 2H8H3.99961C2.89504 2 2 2.89543 2 4V12C2 12.4109 2.1239 12.7928 2.33637 13.1105L6.86869 9.62407C7.82827 8.88594 9.17885 8.94142 10.0747 9.75578L13.701 13.0525C13.8906 12.7468 14 12.3862 14 12ZM12.9769 13.7456L9.40198 10.4957C8.8645 10.0071 8.05415 9.97382 7.4784 10.4167L3.09856 13.7858C3.36943 13.9228 3.6757 14 4 14H12C12.3548 14 12.688 13.9076 12.9769 13.7456ZM7.5 5.75C7.5 6.7165 6.7165 7.5 5.75 7.5C4.7835 7.5 4 6.7165 4 5.75C4 4.7835 4.7835 4 5.75 4C6.7165 4 7.5 4.7835 7.5 5.75Z" fill="#EDAB6D"/>
</svg>
