<svg width="16" height="16" viewBox="0 0 16 16" fill="none" xmlns="http://www.w3.org/2000/svg">
<path fill-rule="evenodd" clip-rule="evenodd" d="M12.0004 2C13.105 2 14 2.89543 14 4V12C14 13.1046 13.1046 14 12 14H4C2.89543 14 2 13.1046 2 12V4C2 2.89543 2.89504 2 3.99961 2H8H12.0004ZM5.90391 4.25C5.4897 4.25 5.15391 4.58578 5.15391 5L5.15389 7.25H5C4.58579 7.25 4.25 7.58579 4.25 8C4.25 8.41421 4.58579 8.75 5 8.75H5.15389V11C5.15389 11.4142 5.48968 11.75 5.90389 11.75H6.90389C7.3181 11.75 7.65389 11.4142 7.65389 11C7.65389 10.5858 7.3181 10.25 6.90389 10.25H6.65389V8V8L6.6539 5.75H6.90393C7.31814 5.75 7.65393 5.41421 7.65393 5C7.65393 4.58579 7.31814 4.25 6.90393 4.25H5.90391ZM9.09607 4.25C8.68186 4.25 8.34607 4.58579 8.34607 5C8.34607 5.41421 8.68186 5.75 9.09607 5.75H9.3461L9.34611 8V10.25H9.09611C8.6819 10.25 8.34611 10.5858 8.34611 11C8.34611 11.4142 8.6819 11.75 9.09611 11.75H10.0961C10.5103 11.75 10.8461 11.4142 10.8461 11V8.75H11C11.4142 8.75 11.75 8.41421 11.75 8C11.75 7.58579 11.4142 7.25 11 7.25H10.8461L10.8461 5C10.8461 4.58578 10.5103 4.25 10.0961 4.25H9.09607Z" fill="#D1C560"/>
</svg>
