<svg width="16" height="16" viewBox="0 0 16 16" fill="none" xmlns="http://www.w3.org/2000/svg">
<path fill-rule="evenodd" clip-rule="evenodd" d="M3.84615 2C2.82655 2 2 2.82655 2 3.84615L2 4.81319C2 5.15305 2.27551 5.42857 2.61538 5.42857H5.05494C5.73468 5.42857 6.28571 5.97961 6.28571 6.65934V9.08461C6.28571 9.42448 6.56123 9.7 6.90109 9.7H9.34065C10.0204 9.7 10.5714 10.251 10.5714 10.9308V13.3846C10.5714 13.7245 10.8469 14 11.1868 14H12.1538C13.1734 14 14 13.1734 14 12.1538V3.84615C14 2.82655 13.1734 2 12.1538 2H3.84615ZM12 5C12.5523 5 13 4.55228 13 4C13 3.44772 12.5523 3 12 3C11.4477 3 11 3.44772 11 4C11 4.55228 11.4477 5 12 5Z" fill="#E96F3A"/>
<rect x="2" y="6.28571" width="3.42857" height="3.42857" rx="0.615385" fill="#E96F3A"/>
<path d="M2 11.1868C2 10.8469 2.27552 10.5714 2.61538 10.5714H4.81319C5.15305 10.5714 5.42857 10.8469 5.42857 11.1868V13.3846C5.42857 13.7245 5.15305 14 4.81319 14H3.84615C2.82655 14 2 13.1734 2 12.1538V11.1868Z" fill="#E96F3A"/>
<rect x="6.28571" y="10.5714" width="3.42857" height="3.42857" rx="0.615385" fill="#E96F3A"/>
</svg>
