<svg width="16" height="16" viewBox="0 0 16 16" fill="none" xmlns="http://www.w3.org/2000/svg">
<path fill-rule="evenodd" clip-rule="evenodd" d="M14 12V4C14 2.89543 13.105 2 12.0004 2H8H3.99961C2.89504 2 2 2.89543 2 4V12C2 13.1046 2.89543 14 4 14H12C13.1046 14 14 13.1046 14 12ZM12 10.5C12 10.9142 11.6642 11.25 11.25 11.25H9.00001C8.58579 11.25 8.25001 10.9142 8.25001 10.5C8.25001 10.0858 8.58579 9.75 9.00001 9.75L11.25 9.75C11.6642 9.75 12 10.0858 12 10.5ZM7.98789 8.53034C8.28078 8.23745 8.28078 7.76258 7.98789 7.46968L5.48786 4.96966C5.19497 4.67677 4.7201 4.67677 4.4272 4.96966C4.13431 5.26255 4.13431 5.73743 4.4272 6.03032L6.3969 8.00002L4.42725 9.96969C4.13436 10.2626 4.13436 10.7375 4.42726 11.0303C4.72015 11.3232 5.19502 11.3232 5.48792 11.0303L7.98789 8.53034Z" fill="#6FB6BE"/>
</svg>
