<svg width="16" height="16" viewBox="0 0 16 16" fill="none" xmlns="http://www.w3.org/2000/svg">
<path fill-rule="evenodd" clip-rule="evenodd" d="M14 4V12C14 13.1046 13.1046 14 12 14H4C2.89543 14 2 13.1046 2 12V4C2 2.89543 2.89504 2 3.99961 2H8H12.0004C13.105 2 14 2.89543 14 4ZM7.44714 6.51712C7.73274 6.21711 7.72106 5.74238 7.42105 5.45678C7.12104 5.17118 6.64631 5.18287 6.36071 5.48288L4.45678 7.48289C4.18107 7.77251 4.18107 8.2275 4.45678 8.51713L6.36067 10.5171C6.64627 10.8171 7.121 10.8288 7.42101 10.5432C7.72102 10.2576 7.73271 9.78289 7.44711 9.48288L6.03549 8.00001L7.44714 6.51712ZM9.63929 5.48288C9.35369 5.18287 8.87896 5.17118 8.57895 5.45678C8.27894 5.74238 8.26726 6.21711 8.55286 6.51712L9.96451 8.00001L8.55289 9.48288C8.26729 9.78289 8.27898 10.2576 8.57899 10.5432C8.879 10.8288 9.35373 10.8171 9.63933 10.5171L11.5432 8.51713C11.8189 8.2275 11.8189 7.77251 11.5432 7.48289L9.63929 5.48288Z" fill="#E495C0"/>
</svg>
