<svg width="16" height="16" viewBox="0 0 16 16" fill="none" xmlns="http://www.w3.org/2000/svg">
<path d="M6.56974 2.35871C6.90266 1.51457 8.09734 1.51457 8.43026 2.35872L9.46198 4.97465C9.56362 5.23238 9.76762 5.43638 10.0253 5.53803L12.6413 6.56974C13.4854 6.90266 13.4854 8.09734 12.6413 8.43026L10.0253 9.46198C9.76762 9.56362 9.56362 9.76762 9.46198 10.0253L8.43026 12.6413C8.09734 13.4854 6.90266 13.4854 6.56974 12.6413L5.53802 10.0253C5.43638 9.76762 5.23237 9.56362 4.97465 9.46198L2.35871 8.43026C1.51457 8.09734 1.51457 6.90266 2.35872 6.56974L4.97465 5.53802C5.23238 5.43638 5.43638 5.23237 5.53803 4.97465L6.56974 2.35871Z" fill="#0E0E0E"/>
<circle cx="13.5" cy="2.5" r="1.5" fill="#0E0E0E"/>
<line x1="13" y1="11.75" x2="13" y2="14.25" stroke="#0E0E0E" stroke-width="1.5" stroke-linecap="round"/>
<line x1="14.25" y1="13" x2="11.75" y2="13" stroke="#0E0E0E" stroke-width="1.5" stroke-linecap="round"/>
</svg>
