<svg width="16" height="16" viewBox="0 0 16 16" fill="none" xmlns="http://www.w3.org/2000/svg">
<path d="M2.78192 6.04749C2.84358 3.24207 5.13547 1 7.94157 1V1C10.6059 1 12.8323 3.02814 13.0801 5.68092L13.2383 7.37495C13.2461 7.45799 13.2642 7.53974 13.2922 7.61828L14.0227 9.66366C14.2553 10.3149 13.7725 11 13.081 11H2.919C2.22747 11 1.74468 10.3149 1.97726 9.66366L2.69554 7.65248C2.73161 7.55149 2.7512 7.44534 2.75356 7.33812L2.78192 6.04749Z" fill="#0E0E0E"/>
<path d="M10.5 12C10.5 13.3807 9.38071 14.5 8 14.5C6.61929 14.5 5.5 13.3807 5.5 12C5.5 12 10.4996 12.0423 10.5 12Z" fill="#0E0E0E"/>
</svg>
