<svg width="16" height="16" viewBox="0 0 16 16" fill="none" xmlns="http://www.w3.org/2000/svg">
<mask id="path-1-inside-1_3174_38" fill="white">
<path fill-rule="evenodd" clip-rule="evenodd" d="M8 2H8.29289L6.33255 3.96034C6.08496 3.82618 5.80138 3.75 5.5 3.75C4.5335 3.75 3.75 4.5335 3.75 5.5C3.75 6.4665 4.5335 7.25 5.5 7.25C6.4665 7.25 7.25 6.4665 7.25 5.5C7.25 5.19862 7.17382 4.91504 7.03966 4.66745L9.70711 2H12.0004C13.105 2 14 2.89543 14 4V12C14 12.3709 13.899 12.7182 13.7231 13.016L12.3536 11.6464L12.0397 11.3325C12.1738 11.085 12.25 10.8014 12.25 10.5C12.25 9.5335 11.4665 8.75 10.5 8.75C9.5335 8.75 8.75 9.5335 8.75 10.5C8.75 11.4665 9.5335 12.25 10.5 12.25C10.8014 12.25 11.085 12.1738 11.3325 12.0397L11.6464 12.3536L13.016 13.7231C12.7182 13.899 12.3709 14 12 14H4C2.89543 14 2 13.1046 2 12V4C2 2.89543 2.89504 2 3.99961 2H8ZM12.25 5.5C12.25 6.4665 11.4665 7.25 10.5 7.25C10.1986 7.25 9.91504 7.17382 9.66745 7.03966L7.03965 9.66745C7.17382 9.91503 7.25 10.1986 7.25 10.5C7.25 11.4665 6.4665 12.25 5.5 12.25C4.5335 12.25 3.75 11.4665 3.75 10.5C3.75 9.5335 4.5335 8.75 5.5 8.75C5.80138 8.75 6.08496 8.82618 6.33255 8.96034L8.96034 6.33255C8.82618 6.08496 8.75 5.80138 8.75 5.5C8.75 4.5335 9.5335 3.75 10.5 3.75C11.4665 3.75 12.25 4.5335 12.25 5.5Z"/>
</mask>
<path fill-rule="evenodd" clip-rule="evenodd" d="M8 2H8.29289L6.33255 3.96034C6.08496 3.82618 5.80138 3.75 5.5 3.75C4.5335 3.75 3.75 4.5335 3.75 5.5C3.75 6.4665 4.5335 7.25 5.5 7.25C6.4665 7.25 7.25 6.4665 7.25 5.5C7.25 5.19862 7.17382 4.91504 7.03966 4.66745L9.70711 2H12.0004C13.105 2 14 2.89543 14 4V12C14 12.3709 13.899 12.7182 13.7231 13.016L12.3536 11.6464L12.0397 11.3325C12.1738 11.085 12.25 10.8014 12.25 10.5C12.25 9.5335 11.4665 8.75 10.5 8.75C9.5335 8.75 8.75 9.5335 8.75 10.5C8.75 11.4665 9.5335 12.25 10.5 12.25C10.8014 12.25 11.085 12.1738 11.3325 12.0397L11.6464 12.3536L13.016 13.7231C12.7182 13.899 12.3709 14 12 14H4C2.89543 14 2 13.1046 2 12V4C2 2.89543 2.89504 2 3.99961 2H8ZM12.25 5.5C12.25 6.4665 11.4665 7.25 10.5 7.25C10.1986 7.25 9.91504 7.17382 9.66745 7.03966L7.03965 9.66745C7.17382 9.91503 7.25 10.1986 7.25 10.5C7.25 11.4665 6.4665 12.25 5.5 12.25C4.5335 12.25 3.75 11.4665 3.75 10.5C3.75 9.5335 4.5335 8.75 5.5 8.75C5.80138 8.75 6.08496 8.82618 6.33255 8.96034L8.96034 6.33255C8.82618 6.08496 8.75 5.80138 8.75 5.5C8.75 4.5335 9.5335 3.75 10.5 3.75C11.4665 3.75 12.25 4.5335 12.25 5.5Z" fill="#0E0E0E"/>
<path d="M8.29289 2L9 2.70711L10.7071 1H8.29289V2ZM6.33255 3.96034L5.85612 4.83956L6.51209 5.19502L7.03966 4.66745L6.33255 3.96034ZM7.03966 4.66745L6.33255 3.96034L5.80498 4.48791L6.16044 5.14388L7.03966 4.66745ZM9.70711 2V1H9.29289L9 1.29289L9.70711 2ZM13.7231 13.016L13.016 13.7231L13.9279 14.635L14.584 13.5247L13.7231 13.016ZM12.0397 11.3325L11.1604 10.8561L10.805 11.5121L11.3325 12.0397L12.0397 11.3325ZM11.3325 12.0397L12.0397 11.3325L11.5121 10.805L10.8561 11.1604L11.3325 12.0397ZM13.016 13.7231L13.5247 14.584L14.635 13.9279L13.7231 13.016L13.016 13.7231ZM9.66745 7.03966L10.1439 6.16044L9.48791 5.80499L8.96034 6.33255L9.66745 7.03966ZM7.03965 9.66745L6.33255 8.96034L5.80498 9.48791L6.16044 10.1439L7.03965 9.66745ZM6.33255 8.96034L5.85612 9.83956L6.51209 10.195L7.03965 9.66745L6.33255 8.96034ZM8.96034 6.33255L9.66745 7.03966L10.195 6.51209L9.83956 5.85612L8.96034 6.33255ZM8.29289 1H8V3H8.29289V1ZM7.03966 4.66745L9 2.70711L7.58579 1.29289L5.62544 3.25324L7.03966 4.66745ZM5.5 4.75C5.6309 4.75 5.75118 4.78269 5.85612 4.83956L6.80898 3.08113C6.41875 2.86967 5.97186 2.75 5.5 2.75V4.75ZM4.75 5.5C4.75 5.08579 5.08579 4.75 5.5 4.75V2.75C3.98122 2.75 2.75 3.98122 2.75 5.5H4.75ZM5.5 6.25C5.08579 6.25 4.75 5.91421 4.75 5.5H2.75C2.75 7.01878 3.98122 8.25 5.5 8.25V6.25ZM6.25 5.5C6.25 5.91421 5.91421 6.25 5.5 6.25V8.25C7.01878 8.25 8.25 7.01878 8.25 5.5H6.25ZM6.16044 5.14388C6.21731 5.24882 6.25 5.3691 6.25 5.5H8.25C8.25 5.02814 8.13032 4.58125 7.91887 4.19102L6.16044 5.14388ZM9 1.29289L6.33255 3.96034L7.74676 5.37456L10.4142 2.70711L9 1.29289ZM12.0004 1H9.70711V3H12.0004V1ZM15 4C15 2.3434 13.6575 1 12.0004 1V3C12.5524 3 13 3.44746 13 4H15ZM15 12V4H13V12H15ZM14.584 13.5247C14.8485 13.0771 15 12.5547 15 12H13C13 12.1871 12.9496 12.3593 12.8622 12.5073L14.584 13.5247ZM11.6464 12.3536L13.016 13.7231L14.4302 12.3089L13.0607 10.9393L11.6464 12.3536ZM11.3325 12.0397L11.6464 12.3536L13.0607 10.9393L12.7468 10.6254L11.3325 12.0397ZM12.9189 11.809C13.1303 11.4187 13.25 10.9719 13.25 10.5H11.25C11.25 10.6309 11.2173 10.7512 11.1604 10.8561L12.9189 11.809ZM13.25 10.5C13.25 8.98122 12.0188 7.75 10.5 7.75V9.75C10.9142 9.75 11.25 10.0858 11.25 10.5H13.25ZM10.5 7.75C8.98122 7.75 7.75 8.98122 7.75 10.5H9.75C9.75 10.0858 10.0858 9.75 10.5 9.75V7.75ZM7.75 10.5C7.75 12.0188 8.98122 13.25 10.5 13.25V11.25C10.0858 11.25 9.75 10.9142 9.75 10.5H7.75ZM10.5 13.25C10.9719 13.25 11.4187 13.1303 11.809 12.9189L10.8561 11.1604C10.7512 11.2173 10.6309 11.25 10.5 11.25V13.25ZM12.3536 11.6464L12.0397 11.3325L10.6254 12.7468L10.9393 13.0607L12.3536 11.6464ZM13.7231 13.016L12.3536 11.6464L10.9393 13.0607L12.3089 14.4302L13.7231 13.016ZM12 15C12.5547 15 13.0771 14.8485 13.5247 14.584L12.5073 12.8622C12.3593 12.9496 12.1871 13 12 13V15ZM4 15H12V13H4V15ZM1 12C1 13.6569 2.34315 15 4 15V13C3.44772 13 3 12.5523 3 12H1ZM1 4V12H3V4H1ZM3.99961 1C2.3425 1 1 2.3434 1 4H3C3 3.44746 3.44758 3 3.99961 3V1ZM8 1H3.99961V3H8V1ZM10.5 8.25C12.0188 8.25 13.25 7.01878 13.25 5.5H11.25C11.25 5.91421 10.9142 6.25 10.5 6.25V8.25ZM9.19102 7.91887C9.58125 8.13032 10.0281 8.25 10.5 8.25V6.25C10.3691 6.25 10.2488 6.21731 10.1439 6.16044L9.19102 7.91887ZM7.74676 10.3746L10.3746 7.74676L8.96034 6.33255L6.33255 8.96034L7.74676 10.3746ZM8.25 10.5C8.25 10.0281 8.13033 9.58125 7.91887 9.19102L6.16044 10.1439C6.21731 10.2488 6.25 10.3691 6.25 10.5H8.25ZM5.5 13.25C7.01878 13.25 8.25 12.0188 8.25 10.5H6.25C6.25 10.9142 5.91421 11.25 5.5 11.25V13.25ZM2.75 10.5C2.75 12.0188 3.98122 13.25 5.5 13.25V11.25C5.08579 11.25 4.75 10.9142 4.75 10.5H2.75ZM5.5 7.75C3.98122 7.75 2.75 8.98122 2.75 10.5H4.75C4.75 10.0858 5.08579 9.75 5.5 9.75V7.75ZM6.80897 8.08113C6.41875 7.86967 5.97186 7.75 5.5 7.75V9.75C5.6309 9.75 5.75118 9.78269 5.85612 9.83956L6.80897 8.08113ZM8.25324 5.62544L5.62544 8.25324L7.03965 9.66745L9.66745 7.03966L8.25324 5.62544ZM7.75 5.5C7.75 5.97186 7.86967 6.41875 8.08113 6.80898L9.83956 5.85612C9.78269 5.75118 9.75 5.6309 9.75 5.5H7.75ZM10.5 2.75C8.98122 2.75 7.75 3.98122 7.75 5.5H9.75C9.75 5.08579 10.0858 4.75 10.5 4.75V2.75ZM13.25 5.5C13.25 3.98122 12.0188 2.75 10.5 2.75V4.75C10.9142 4.75 11.25 5.08579 11.25 5.5H13.25Z" fill="#0E0E0E" mask="url(#path-1-inside-1_3174_38)"/>
</svg>
