<svg width="16" height="16" viewBox="0 0 16 16" fill="none" xmlns="http://www.w3.org/2000/svg">
<g clip-path="url(#clip0_3513_101)">
<path d="M5.73668 7.55084L8.84527 10.0681L5.06934 14.731C4.72178 15.1602 4.09208 15.2264 3.66288 14.8788L2.10859 13.6202C1.67938 13.2726 1.6132 12.6429 1.96076 12.2137L5.73668 7.55084Z" fill="#0E0E0E"/>
<path d="M6.55185 1.77715C6.89941 1.34794 7.52911 1.28176 7.95831 1.62932L12.6513 5.42963C13.1235 5.81198 13.3962 6.38824 13.3926 6.9958L13.3727 10.357C13.3677 11.1955 12.395 11.6559 11.7434 11.1282L4.81171 5.51505C4.38251 5.16749 4.31632 4.53779 4.66389 4.10858L6.55185 1.77715Z" fill="#0E0E0E"/>
</g>
<defs>
<clipPath id="clip0_3513_101">
<rect width="16" height="16" fill="white"/>
</clipPath>
</defs>
</svg>
