<svg width="16" height="16" viewBox="0 0 16 16" fill="none" xmlns="http://www.w3.org/2000/svg">
  <path
    d="M8 1C11.866 1 15 4.13401 15 8C15 11.866 11.866 15 8 15C4.13401 15 1 11.866 1 8C1 4.13401 4.13401 1 8 1ZM10.9502 5.40039C10.6396 5.16746 10.2069 5.2119 9.94922 5.49121L9.89941 5.55078L7.35059 8.94922L5.9502 7.89941C5.61894 7.6512 5.14891 7.71879 4.90039 8.0498C4.66746 8.36038 4.7119 8.79312 4.99121 9.05078L5.0498 9.10059L7.0498 10.6006C7.2089 10.7198 7.40961 10.7703 7.60645 10.7422C7.80313 10.714 7.98133 10.6091 8.10059 10.4502L11.0996 6.44922L11.1426 6.38574C11.3385 6.06029 11.2605 5.63337 10.9502 5.40039Z"
    fill="currentColor" />
</svg>
