<svg width="16" height="16" viewBox="0 0 16 16" fill="none" xmlns="http://www.w3.org/2000/svg">
<g clip-path="url(#clip0_3514_146)">
<path d="M6.18878 4.7505C7.29468 3.69516 9.01726 3.64013 10.1883 4.62273L12.2028 6.31309C13.3738 7.29569 13.6187 9.00165 12.7714 10.274L9.85991 14.6463C9.52956 15.1424 8.84135 15.2412 8.38478 14.8581L6.94252 13.6479L9.51367 10.5837L8.74762 9.94092L6.17647 13.0051L4.64438 11.7195L7.21554 8.65534L6.44949 8.01256L3.87834 11.0767L2.43608 9.86654C1.97951 9.48343 1.95731 8.78851 2.38849 8.37704L6.18878 4.7505Z" fill="#0E0E0E"/>
<path d="M12.2962 1.82257C12.8287 1.18796 13.7748 1.10518 14.4095 1.63769V1.63769C15.0441 2.17019 15.1268 3.11632 14.5943 3.75093L12.9874 5.66604L10.6892 3.73768L12.2962 1.82257Z" fill="#0E0E0E"/>
</g>
<defs>
<clipPath id="clip0_3514_146">
<rect width="16" height="16" fill="white"/>
</clipPath>
</defs>
</svg>
