<svg width="16" height="16" viewBox="0 0 16 16" fill="none" xmlns="http://www.w3.org/2000/svg">
<path fill-rule="evenodd" clip-rule="evenodd" d="M9 1.57735C8.3812 1.22009 7.6188 1.22009 7 1.57735L2.93782 3.92265C2.31902 4.27992 1.93782 4.94017 1.93782 5.6547V10.3453C1.93782 11.0598 2.31902 11.7201 2.93782 12.0774L7 14.4227C7.6188 14.7799 8.3812 14.7799 9 14.4227L13.0622 12.0774C13.681 11.7201 14.0622 11.0598 14.0622 10.3453V5.6547C14.0622 4.94017 13.681 4.27992 13.0622 3.92265L9 1.57735ZM7.44714 6.51712C7.73274 6.21711 7.72106 5.74238 7.42105 5.45678C7.12104 5.17118 6.64631 5.18287 6.36071 5.48288L4.45678 7.48289C4.18107 7.77251 4.18107 8.2275 4.45678 8.51713L6.36067 10.5171C6.64627 10.8171 7.121 10.8288 7.42101 10.5432C7.72102 10.2576 7.73271 9.78289 7.44711 9.48288L6.03549 8.00001L7.44714 6.51712ZM9.63929 5.48288C9.35369 5.18287 8.87896 5.17118 8.57895 5.45678C8.27894 5.74238 8.26726 6.21711 8.55286 6.51712L9.96451 8.00001L8.55289 9.48288C8.26729 9.78289 8.27898 10.2576 8.57899 10.5432C8.87901 10.8288 9.35373 10.8171 9.63933 10.5171L11.5432 8.51713C11.8189 8.2275 11.8189 7.77251 11.5432 7.48289L9.63929 5.48288Z" fill="#0E0E0E"/>
</svg>
