<svg width="16" height="16" viewBox="0 0 16 16" fill="none" xmlns="http://www.w3.org/2000/svg">
<mask id="path-1-inside-1_3174_136" fill="white">
<path fill-rule="evenodd" clip-rule="evenodd" d="M5.5 6.5H4.49989C3.39532 6.5 2.5 7.39543 2.5 8.5V11.5C2.5 12.6046 3.39543 13.5 4.5 13.5H7.5C8.60457 13.5 9.5 12.6046 9.5 11.5V10.5H8.5C6.84315 10.5 5.5 9.15685 5.5 7.5V6.5Z"/>
</mask>
<path fill-rule="evenodd" clip-rule="evenodd" d="M5.5 6.5H4.49989C3.39532 6.5 2.5 7.39543 2.5 8.5V11.5C2.5 12.6046 3.39543 13.5 4.5 13.5H7.5C8.60457 13.5 9.5 12.6046 9.5 11.5V10.5H8.5C6.84315 10.5 5.5 9.15685 5.5 7.5V6.5Z" fill="#0E0E0E"/>
<path d="M5.5 6.5H6.5V5.5H5.5V6.5ZM9.5 10.5H10.5V9.5H9.5V10.5ZM5.5 5.5H4.49989V7.5H5.5V5.5ZM4.49989 5.5C2.84296 5.5 1.5 6.84322 1.5 8.5H3.5C3.5 7.94764 3.94768 7.5 4.49989 7.5V5.5ZM1.5 8.5V11.5H3.5V8.5H1.5ZM1.5 11.5C1.5 13.1569 2.84315 14.5 4.5 14.5V12.5C3.94772 12.5 3.5 12.0523 3.5 11.5H1.5ZM4.5 14.5H7.5V12.5H4.5V14.5ZM7.5 14.5C9.15685 14.5 10.5 13.1569 10.5 11.5H8.5C8.5 12.0523 8.05228 12.5 7.5 12.5V14.5ZM10.5 11.5V10.5H8.5V11.5H10.5ZM8.5 11.5H9.5V9.5H8.5V11.5ZM4.5 7.5C4.5 9.70914 6.29086 11.5 8.5 11.5V9.5C7.39543 9.5 6.5 8.60457 6.5 7.5H4.5ZM4.5 6.5V7.5H6.5V6.5H4.5Z" fill="#0E0E0E" mask="url(#path-1-inside-1_3174_136)"/>
<path d="M13 4.5V7.5C13 8.32843 12.3284 9 11.5 9H8.5C7.67157 9 7 8.32843 7 7.5V4.5C7 3.67154 7.6715 3 8.49989 3H10H11.5001C12.3285 3 13 3.67154 13 4.5Z" fill="#0E0E0E" stroke="#0E0E0E"/>
</svg>
