<svg width="16" height="16" viewBox="0 0 16 16" fill="none" xmlns="http://www.w3.org/2000/svg">
  <path
    d="M8 1C11.866 1 15 4.13401 15 8C15 11.866 11.866 15 8 15C4.13401 15 1 11.866 1 8C1 4.13401 4.13401 1 8 1ZM11.0303 4.96973C10.7374 4.67683 10.2626 4.67683 9.96973 4.96973L8 6.93945L6.03027 4.96973L5.97363 4.91797C5.67905 4.67766 5.24433 4.69512 4.96973 4.96973C4.69512 5.24433 4.67766 5.67905 4.91797 5.97363L4.96973 6.03027L6.93945 8L4.96973 9.96973L4.91797 10.0264C4.67766 10.3209 4.69512 10.7557 4.96973 11.0303C5.24433 11.3049 5.67905 11.3223 5.97363 11.082L6.03027 11.0303L8 9.06055L9.96973 11.0303C10.2626 11.3232 10.7374 11.3232 11.0303 11.0303C11.3232 10.7374 11.3232 10.2626 11.0303 9.96973L9.06055 8L11.0303 6.03027C11.3232 5.73738 11.3232 5.26262 11.0303 4.96973Z"
    fill="currentColor" />
</svg>
