<svg width="16" height="16" viewBox="0 0 16 16" fill="none" xmlns="http://www.w3.org/2000/svg">
<path d="M3.5 3C3.5 1.61929 4.61929 0.5 6 0.5H8.5V5.5H6C4.61929 5.5 3.5 4.38071 3.5 3V3Z" fill="#0E0E0E"/>
<path d="M8.5 0.5H11C12.3807 0.5 13.5 1.61929 13.5 3V3C13.5 4.38071 12.3807 5.5 11 5.5H8.5V0.5Z" fill="#0E0E0E"/>
<path d="M3.5 8C3.5 6.61929 4.61929 5.5 6 5.5H8.5V10.5H6C4.61929 10.5 3.5 9.38071 3.5 8V8Z" fill="#0E0E0E"/>
<rect x="8.5" y="5.5" width="5" height="5" rx="2.5" fill="#0E0E0E"/>
<path d="M3.5 13C3.5 11.6193 4.61929 10.5 6 10.5H8.5V13C8.5 14.3807 7.38071 15.5 6 15.5V15.5C4.61929 15.5 3.5 14.3807 3.5 13V13Z" fill="#0E0E0E"/>
</svg>
