<svg width="16" height="16" viewBox="0 0 16 16" fill="none" xmlns="http://www.w3.org/2000/svg">
<path d="M6.87375 1.84725C7.55321 1.38425 8.44679 1.38425 9.12625 1.84725L13.5631 4.87072C13.8365 5.05697 14 5.36633 14 5.69709V13.39C14 13.9423 13.5523 14.39 13 14.39H10C9.44772 14.39 9 13.9423 9 13.39V9.89003C9 9.61388 8.77614 9.39003 8.5 9.39003H7.5C7.22386 9.39003 7 9.61388 7 9.89003V13.39C7 13.9423 6.55228 14.39 6 14.39H3C2.44772 14.39 2 13.9423 2 13.39V5.69709C2 5.36633 2.16355 5.05697 2.43688 4.87072L6.87375 1.84725Z" fill="#0E0E0E"/>
</svg>
