<svg
    width="16"
    height="16"
    viewBox="0 0 16 16"
    fill="none"
    xmlns="http://www.w3.org/2000/svg"
>
    <path
        fill-rule="evenodd"
        clip-rule="evenodd"
        d="M10.4414 9.31628L13.9293 10.7525C13.6217 12.3686 12.3417 13.6401 10.7211 13.9352L9.29238 10.4653L9.27547 10.4243L9.13692 10.0878L8.94495 9.62156C8.77573 9.21059 9.1867 8.79963 9.59766 8.96885L10.0639 9.16082L10.4004 9.29937L10.4414 9.31628ZM7.55793 10.1927L9.12565 14H4C2.89543 14 2 13.1046 2 12V4C2 2.89543 2.89504 2 3.99961 2H8H12.0004C13.105 2 14 2.89543 14 4V9.15939L10.1688 7.58183C8.52492 6.90494 6.88104 8.54881 7.55793 10.1927ZM5.5 4.25C4.80964 4.25 4.25 4.80964 4.25 5.5V10.5C4.25 11.1904 4.80964 11.75 5.5 11.75H6.25C6.66421 11.75 7 11.4142 7 11C7 10.5858 6.66421 10.25 6.25 10.25H5.75V5.75H10.25V6.25C10.25 6.66421 10.5858 7 11 7C11.4142 7 11.75 6.66421 11.75 6.25V5.5C11.75 4.80964 11.1904 4.25 10.5 4.25H5.5Z"
        fill="currentColor"
    />
    <path
        d="M8.94495 9.62156C8.77573 9.21059 9.1867 8.79963 9.59766 8.96885L14.997 11.1921C15.4066 11.3608 15.4108 11.9395 15.0036 12.114L13.148 12.9093C13.03 12.9598 12.9359 13.0539 12.8854 13.1719L12.0901 15.0275C11.9156 15.4347 11.3369 15.4305 11.1682 15.0209L8.94495 9.62156Z"
        fill="currentColor"
    />
</svg>
