<svg width="16" height="16" viewBox="0 0 16 16" fill="none" xmlns="http://www.w3.org/2000/svg">
<circle opacity="0.24" cx="8" cy="8" r="6" stroke="#0E0E0E" stroke-width="2"/>
<mask id="mask0_3174_95" style="mask-type:alpha" maskUnits="userSpaceOnUse" x="1" y="1" width="14" height="14">
<circle cx="8" cy="8" r="6" stroke="black" stroke-width="2"/>
</mask>
<g mask="url(#mask0_3174_95)">
<mask id="path-3-inside-1_3174_95" fill="white">
<path d="M8 1C9.17164 1 10.3245 1.29409 11.353 1.8553C12.3815 2.41652 13.2527 3.22691 13.8866 4.2122C14.5206 5.19748 14.8972 6.32615 14.9817 7.49473C15.0663 8.66331 14.8562 9.83442 14.3707 10.9007C13.8852 11.967 13.1398 12.8944 12.2028 13.5979C11.2659 14.3013 10.1673 14.7584 9.00791 14.9271C7.84848 15.0958 6.66526 14.9707 5.56669 14.5635C4.46812 14.1562 3.48935 13.4797 2.72009 12.5959L8 8V1Z"/>
</mask>
<path d="M8 1C9.17164 1 10.3245 1.29409 11.353 1.8553C12.3815 2.41652 13.2527 3.22691 13.8866 4.2122C14.5206 5.19748 14.8972 6.32615 14.9817 7.49473C15.0663 8.66331 14.8562 9.83442 14.3707 10.9007C13.8852 11.967 13.1398 12.8944 12.2028 13.5979C11.2659 14.3013 10.1673 14.7584 9.00791 14.9271C7.84848 15.0958 6.66526 14.9707 5.56669 14.5635C4.46812 14.1562 3.48935 13.4797 2.72009 12.5959L8 8V1Z" fill="#0E0E0E" stroke="#0E0E0E" stroke-width="4" mask="url(#path-3-inside-1_3174_95)"/>
</g>
</svg>
