<svg width="16" height="16" viewBox="0 0 16 16" fill="none" xmlns="http://www.w3.org/2000/svg">
<path fill-rule="evenodd" clip-rule="evenodd" d="M2.84616 1C1.82656 1 1.00001 1.82655 1 2.84615L1 4.38461C0.999999 4.72448 1.27552 5 1.61538 5H4.76923C5.44896 5 6 5.55103 6 6.23077V9.53846C6 9.87833 6.27552 10.1538 6.61538 10.1538H9.76923C10.449 10.1538 11 10.7049 11 11.3846V14.3846C11 14.7245 11.2755 15 11.6154 15H13.1538C14.1734 15 15 14.1735 15 13.1538V2.84616C15 1.82655 14.1734 1 13.1538 1H2.84616ZM13 4C13.5523 4 14 3.55228 14 3C14 2.44772 13.5523 2 13 2C12.4477 2 12 2.44772 12 3C12 3.55228 12.4477 4 13 4Z" fill="#0E0E0E"/>
<rect x="1" y="6" width="4" height="4" rx="0.615385" fill="#0E0E0E"/>
<path d="M1 11.6154C1 11.2755 1.27552 11 1.61538 11H4.38462C4.72448 11 5 11.2755 5 11.6154V14.3846C5 14.7245 4.72448 15 4.38462 15H2.84615C1.82655 15 1 14.1734 1 13.1538V11.6154Z" fill="#0E0E0E"/>
<rect x="6" y="11" width="4" height="4" rx="0.615385" fill="#0E0E0E"/>
</svg>
