<svg width="16" height="16" viewBox="0 0 16 16" fill="none" xmlns="http://www.w3.org/2000/svg">
<mask id="path-1-inside-1_3181_7" fill="white">
<path fill-rule="evenodd" clip-rule="evenodd" d="M4.99973 2H8V5C8 6.10457 8.89543 7 10 7H13V8H10.5V10.5H8V14H5C3.89543 14 3 13.1046 3 12V4C3 2.89543 3.89516 2 4.99973 2ZM13 11.5V9H11.5V11.5H9V13H11.5V13.937C12.3626 13.715 13 12.9319 13 12V11.5Z"/>
</mask>
<path fill-rule="evenodd" clip-rule="evenodd" d="M4.99973 2H8V5C8 6.10457 8.89543 7 10 7H13V8H10.5V10.5H8V14H5C3.89543 14 3 13.1046 3 12V4C3 2.89543 3.89516 2 4.99973 2ZM13 11.5V9H11.5V11.5H9V13H11.5V13.937C12.3626 13.715 13 12.9319 13 12V11.5Z" fill="#0E0E0E"/>
<path d="M8 2H9V1H8V2ZM13 7H14V6H13V7ZM13 8V9H14V8H13ZM10.5 8V7H9.5V8H10.5ZM10.5 10.5V11.5H11.5V10.5H10.5ZM8 10.5V9.5H7V10.5H8ZM8 14V15H9V14H8ZM13 9H14V8H13V9ZM11.5 9V8H10.5V9H11.5ZM11.5 11.5V12.5H12.5V11.5H11.5ZM9 11.5V10.5H8V11.5H9ZM9 13H8V14H9V13ZM11.5 13H12.5V12H11.5V13ZM11.5 13.937H10.5V15.227L11.7493 14.9054L11.5 13.937ZM8 1H4.99973V3H8V1ZM9 5V2H7V5H9ZM10 6C9.44772 6 9 5.55228 9 5H7C7 6.65685 8.34315 8 10 8V6ZM13 6H10V8H13V6ZM14 8V7H12V8H14ZM10.5 9H13V7H10.5V9ZM11.5 10.5V8H9.5V10.5H11.5ZM8 11.5H10.5V9.5H8V11.5ZM9 14V10.5H7V14H9ZM5 15H8V13H5V15ZM2 12C2 13.6569 3.34315 15 5 15V13C4.44772 13 4 12.5523 4 12H2ZM2 4V12H4V4H2ZM4.99973 1C3.3427 1 2 2.34332 2 4H4C4 3.44754 4.44762 3 4.99973 3V1ZM14 11.5V9H12V11.5H14ZM13 8H11.5V10H13V8ZM10.5 9V11.5H12.5V9H10.5ZM11.5 10.5H9V12.5H11.5V10.5ZM8 11.5V13H10V11.5H8ZM9 14H11.5V12H9V14ZM10.5 13V13.937H12.5V13H10.5ZM11.7493 14.9054C13.043 14.5725 14 13.3993 14 12H12C12 12.4646 11.6823 12.8575 11.2507 12.9686L11.7493 14.9054ZM14 12V11.5H12V12H14Z" fill="#0E0E0E" mask="url(#path-1-inside-1_3181_7)"/>
<path d="M9.5 3.20711L11.7929 5.5H10C9.72386 5.5 9.5 5.27614 9.5 5V3.20711Z" fill="#0E0E0E" stroke="#0E0E0E"/>
<path fill-rule="evenodd" clip-rule="evenodd" d="M13 11.5V9H11.5V11.5H9V13H11.5L11.5 15.5H13V13H15.5V11.5H13Z" fill="#0E0E0E"/>
</svg>
