<svg width="16" height="16" viewBox="0 0 16 16" fill="none" xmlns="http://www.w3.org/2000/svg">
<path d="M14 6V5.5C14 4.39543 13.1046 3.5 12 3.5H8.02705C7.7123 3.5 7.43287 3.2986 7.33333 3C7.13427 2.40281 6.5754 2 5.94591 2H4C2.89543 2 2 2.89543 2 4V6H14Z" fill="#0E0E0E"/>
<path fill-rule="evenodd" clip-rule="evenodd" d="M14 7H2V12C2 13.1046 2.89543 14 4 14H8V10.5H10.5V8H14V7ZM14 11.5H13V9H11.5V11.5H9V13H11.5V14H12C12.3643 14 12.7058 13.9026 13 13.7324V13H13.7324C13.9026 12.7058 14 12.3643 14 12V11.5Z" fill="#0E0E0E"/>
<path fill-rule="evenodd" clip-rule="evenodd" d="M13 11.5V9H11.5V11.5H9V13H11.5L11.5 15.5H13V13H15.5V11.5H13Z" fill="#0E0E0E"/>
</svg>
