<svg width="16" height="16" viewBox="0 0 16 16" fill="none" xmlns="http://www.w3.org/2000/svg">
<path d="M14 6V5.5C14 4.39543 13.1046 3.5 12 3.5H8.02705C7.7123 3.5 7.43287 3.2986 7.33333 3C7.13427 2.40281 6.5754 2 5.94591 2H4C2.89543 2 2 2.89543 2 4V6H14Z" fill="white"/>
<path fill-rule="evenodd" clip-rule="evenodd" d="M14 7H2V12C2 13.1046 2.89543 14 4 14H7.97792L7.79594 13.818C7.06802 13.0901 7.06802 11.9099 7.79594 11.182L10.432 8.54594C11.1599 7.81802 12.3401 7.81802 13.068 8.54594L14 9.47792V7Z" fill="white"/>
<path d="M11.1642 9.26777C11.5212 8.91074 12.1001 8.91074 12.4571 9.26777L12.8881 9.69873C13.2451 10.0558 13.2451 10.6346 12.8881 10.9916L12.4571 11.4226C12.1001 11.7796 11.5212 11.7796 11.1642 11.4226L10.7333 10.9916C10.3762 10.6346 10.3762 10.0558 10.7333 9.69873L11.1642 9.26777Z" fill="white"/>
<path d="M13.319 11.4226C13.6761 11.0656 14.2549 11.0656 14.6119 11.4226L15.0429 11.8535C15.3999 12.2106 15.3999 12.7894 15.0429 13.1464L14.6119 13.5774C14.2549 13.9344 13.6761 13.9344 13.319 13.5774L12.8881 13.1464C12.5311 12.7894 12.5311 12.2106 12.8881 11.8535L13.319 11.4226Z" fill="white"/>
<path d="M11.1642 13.5774C11.5212 13.2204 12.1001 13.2204 12.4571 13.5774L12.8881 14.0084C13.2451 14.3654 13.2451 14.9442 12.8881 15.3013L12.4571 15.7322C12.1001 16.0893 11.5212 16.0893 11.1642 15.7322L10.7333 15.3013C10.3762 14.9442 10.3762 14.3654 10.7333 14.0084L11.1642 13.5774Z" fill="white"/>
<path d="M9.0094 11.4226C9.36642 11.0656 9.94527 11.0656 10.3023 11.4226L10.7333 11.8535C11.0903 12.2106 11.0903 12.7894 10.7333 13.1464L10.3023 13.5774C9.94527 13.9344 9.36642 13.9344 9.0094 13.5774L8.57844 13.1464C8.22141 12.7894 8.22141 12.2106 8.57844 11.8535L9.0094 11.4226Z" fill="white"/>
</svg>
