<svg width="16" height="16" viewBox="0 0 16 16" fill="none" xmlns="http://www.w3.org/2000/svg">
<path d="M11.0477 12.8769C11.399 12.6574 11.5058 12.1947 11.2863 11.8435C11.0668 11.4922 10.6041 11.3854 10.2528 11.6049L11.0477 12.8769ZM3.76043 10.6503L4.39647 10.2528L3.76043 10.6503ZM5.35107 3.76043L5.74851 4.39647L5.35107 3.76043ZM11.6049 5.74851C11.8244 6.09979 12.2871 6.20661 12.6384 5.98711C12.9896 5.76761 13.0964 5.30491 12.8769 4.95363L11.6049 5.74851ZM9.91676 5.81932C9.50611 5.87352 9.21715 6.25036 9.27135 6.66101C9.32555 7.07166 9.70239 7.36062 10.113 7.30642L9.91676 5.81932ZM12.7708 6.19912L12.869 6.94267C13.1791 6.90174 13.4312 6.67263 13.5016 6.36783L12.7708 6.19912ZM14.1379 3.6119C14.231 3.2083 13.9794 2.80558 13.5758 2.71241C13.1722 2.61923 12.7695 2.87088 12.6763 3.27447L14.1379 3.6119ZM10.2528 11.6049C8.26228 12.8487 5.6403 12.2434 4.39647 10.2528L3.12439 11.0477C4.80722 13.7408 8.35461 14.5598 11.0477 12.8769L10.2528 11.6049ZM4.39647 10.2528C3.15263 8.26228 3.75797 5.6403 5.74851 4.39647L4.95363 3.12439C2.26054 4.80722 1.44156 8.35461 3.12439 11.0477L4.39647 10.2528ZM5.74851 4.39647C7.73906 3.15263 10.361 3.75797 11.6049 5.74851L12.8769 4.95363C11.1941 2.26054 7.64673 1.44156 4.95363 3.12439L5.74851 4.39647ZM10.113 7.30642L12.869 6.94267L12.6727 5.45557L9.91676 5.81932L10.113 7.30642ZM13.5016 6.36783L14.1379 3.6119L12.6763 3.27447L12.0401 6.03041L13.5016 6.36783Z" fill="#0E0E0E"/>
</svg>
