<svg width="16" height="16" viewBox="0 0 16 16" fill="none" xmlns="http://www.w3.org/2000/svg">
<path fill-rule="evenodd" clip-rule="evenodd" d="M9 1.57735C8.3812 1.22009 7.6188 1.22009 7 1.57735L2.93782 3.92265C2.31902 4.27992 1.93782 4.94017 1.93782 5.6547V10.3453C1.93782 11.0598 2.31902 11.7201 2.93782 12.0774L7 14.4227C7.6188 14.7799 8.3812 14.7799 9 14.4227L13.0622 12.0774C13.681 11.7201 14.0622 11.0598 14.0622 10.3453V5.6547C14.0622 4.94017 13.681 4.27992 13.0622 3.92265L9 1.57735ZM8 10C9.10457 10 10 9.10457 10 8C10 6.89543 9.10457 6 8 6C6.89543 6 6 6.89543 6 8C6 9.10457 6.89543 10 8 10Z" fill="#0E0E0E"/>
</svg>
