<svg width="16" height="16" viewBox="0 0 16 16" fill="none" xmlns="http://www.w3.org/2000/svg">
<path fill-rule="evenodd" clip-rule="evenodd" d="M14 12V4C14 2.89543 13.105 2 12.0004 2H8H3.99961C2.89504 2 2 2.89543 2 4V12C2 13.1046 2.89543 14 4 14H12C13.1046 14 14 13.1046 14 12ZM8.42753 5H11.5C11.7761 5 12 5.22386 12 5.5C12 5.77614 11.7761 6 11.5 6H8.42753C8.21239 6.72287 7.54276 7.25 6.75 7.25C5.95724 7.25 5.28761 6.72287 5.07247 6H4.5C4.22386 6 4 5.77614 4 5.5C4 5.22386 4.22386 5 4.5 5H5.07247C5.28761 4.27713 5.95724 3.75 6.75 3.75C7.54276 3.75 8.21239 4.27713 8.42753 5ZM4.5 10H7.32247C7.53761 9.27713 8.20724 8.75 9 8.75C9.79276 8.75 10.4624 9.27713 10.6775 10H11.5C11.7761 10 12 10.2239 12 10.5C12 10.7761 11.7761 11 11.5 11H10.6775C10.4624 11.7229 9.79276 12.25 9 12.25C8.20724 12.25 7.53761 11.7229 7.32247 11H4.5C4.22386 11 4 10.7761 4 10.5C4 10.2239 4.22386 10 4.5 10Z" fill="#0E0E0E"/>
</svg>
