<svg width="16" height="16" viewBox="0 0 16 16" fill="none" xmlns="http://www.w3.org/2000/svg">
<circle cx="8" cy="8" r="3" fill="#0E0E0E"/>
<path d="M7.25 1.75C7.25 1.33579 7.58579 1 8 1C8.41421 1 8.75 1.33579 8.75 1.75V3.25C8.75 3.66421 8.41421 4 8 4C7.58579 4 7.25 3.66421 7.25 3.25V1.75Z" fill="#0E0E0E"/>
<path d="M7.25 12.75C7.25 12.3358 7.58579 12 8 12C8.41421 12 8.75 12.3358 8.75 12.75V14.25C8.75 14.6642 8.41421 15 8 15C7.58579 15 7.25 14.6642 7.25 14.25V12.75Z" fill="#0E0E0E"/>
<path d="M1.75 8.75C1.33579 8.75 1 8.41421 1 8C1 7.58579 1.33579 7.25 1.75 7.25L3.25 7.25C3.66421 7.25 4 7.58579 4 8C4 8.41421 3.66421 8.75 3.25 8.75L1.75 8.75Z" fill="#0E0E0E"/>
<path d="M12.75 8.75C12.3358 8.75 12 8.41421 12 8C12 7.58579 12.3358 7.25 12.75 7.25L14.25 7.25C14.6642 7.25 15 7.58579 15 8C15 8.41421 14.6642 8.75 14.25 8.75L12.75 8.75Z" fill="#0E0E0E"/>
<path d="M3.05026 4.11091C2.75736 3.81802 2.75736 3.34314 3.05026 3.05025C3.34315 2.75736 3.81803 2.75736 4.11092 3.05025L5.17158 4.11091C5.46447 4.40381 5.46447 4.87868 5.17158 5.17157C4.87869 5.46447 4.40381 5.46447 4.11092 5.17157L3.05026 4.11091Z" fill="#0E0E0E"/>
<path d="M10.8284 11.8891C10.5355 11.5962 10.5355 11.1213 10.8284 10.8284C11.1213 10.5355 11.5962 10.5355 11.8891 10.8284L12.9497 11.8891C13.2426 12.182 13.2426 12.6569 12.9497 12.9497C12.6569 13.2426 12.182 13.2426 11.8891 12.9497L10.8284 11.8891Z" fill="#0E0E0E"/>
<path d="M11.8891 3.05024C12.182 2.75734 12.6568 2.75734 12.9497 3.05024C13.2426 3.34313 13.2426 3.818 12.9497 4.1109L11.8891 5.17156C11.5962 5.46445 11.1213 5.46445 10.8284 5.17156C10.5355 4.87866 10.5355 4.40379 10.8284 4.1109L11.8891 3.05024Z" fill="#0E0E0E"/>
<path d="M4.11089 10.8284C4.40378 10.5355 4.87866 10.5355 5.17155 10.8284C5.46444 11.1213 5.46444 11.5962 5.17155 11.8891L4.11089 12.9497C3.818 13.2426 3.34312 13.2426 3.05023 12.9497C2.75734 12.6568 2.75734 12.182 3.05023 11.8891L4.11089 10.8284Z" fill="#0E0E0E"/>
</svg>
