<svg width="16" height="16" viewBox="0 0 16 16" fill="none" xmlns="http://www.w3.org/2000/svg">
<path fill-rule="evenodd" clip-rule="evenodd" d="M3 7C3 6.44772 3.44772 6 4 6H12C12.5523 6 13 6.44772 13 7V12.5C13 13.6046 12.1046 14.5 11 14.5H5C3.89543 14.5 3 13.6046 3 12.5V7ZM6 12.75C5.58579 12.75 5.25 12.4142 5.25 12L5.25 8.5C5.25 8.08579 5.58579 7.75 6 7.75C6.41421 7.75 6.75 8.08579 6.75 8.5L6.75 12C6.75 12.4142 6.41421 12.75 6 12.75ZM9.25 12C9.25 12.4142 9.58579 12.75 10 12.75C10.4142 12.75 10.75 12.4142 10.75 12L10.75 8.5C10.75 8.08579 10.4142 7.75 10 7.75C9.58579 7.75 9.25 8.08579 9.25 8.5L9.25 12Z" fill="#0E0E0E"/>
<path d="M2.5 5H13.5C13.7761 5 14 4.77614 14 4.5C14 3.39543 13.1048 2.5 12.0003 2.5H11.0274C10.7126 2.5 10.4329 2.2986 10.3333 2C10.1343 1.40281 9.5754 1 8.94591 1H7.05409C6.4246 1 5.86573 1.40281 5.66667 2C5.56713 2.2986 5.2877 2.5 4.97295 2.5H4C2.89543 2.5 2 3.39543 2 4.5C2 4.77614 2.22386 5 2.5 5Z" fill="#0E0E0E"/>
</svg>
